<svg width="41" height="39" viewBox="0 0 41 39" fill="none" xmlns="http://www.w3.org/2000/svg">
<path d="M20.6853 22.3844C24.2349 22.3844 27.1124 19.3999 27.1124 15.7183C27.1124 12.0368 24.2349 9.05225 20.6853 9.05225C17.1358 9.05225 14.2583 12.0368 14.2583 15.7183C14.2583 19.3999 17.1358 22.3844 20.6853 22.3844Z" stroke="#282828" stroke-width="2" stroke-linecap="round" stroke-linejoin="round"/>
<path d="M9.70813 32.7835C10.8553 30.8304 12.4677 29.2162 14.3901 28.0961C16.3126 26.976 18.4805 26.3877 20.6855 26.3877C22.8905 26.3877 25.0584 26.976 26.9809 28.0961C28.9033 29.2162 30.5156 30.8304 31.6629 32.7835" stroke="#282828" stroke-width="2" stroke-linecap="round" stroke-linejoin="round"/>
<path d="M20.6856 37.0499C29.9144 37.0499 37.3959 29.2901 37.3959 19.718C37.3959 10.1459 29.9144 2.38623 20.6856 2.38623C11.4568 2.38623 3.97534 10.1459 3.97534 19.718C3.97534 29.2901 11.4568 37.0499 20.6856 37.0499Z" stroke="#282828" stroke-width="2" stroke-linecap="round" stroke-linejoin="round"/>
</svg>
