<svg width="37" height="37" viewBox="0 0 37 37" fill="none" xmlns="http://www.w3.org/2000/svg">
<g clip-path="url(#clip0_92_719)">
<path d="M17.1786 18.5H35.6786" stroke="#282828" stroke-width="2" stroke-linecap="round" stroke-linejoin="round"/>
<path d="M30.3928 13.2144L35.6785 18.5001L30.3928 23.7858" stroke="#282828" stroke-width="2" stroke-linecap="round" stroke-linejoin="round"/>
<path d="M30.9215 30.3664C28.5483 32.8399 25.4894 34.547 22.1381 35.2679C18.7869 35.9888 15.2966 35.6906 12.1162 34.4117C8.93576 33.1327 6.21071 30.9316 4.29153 28.0912C2.37235 25.2509 1.3468 21.9014 1.3468 18.4735C1.3468 15.0456 2.37235 11.6961 4.29153 8.85575C6.21071 6.01544 8.93576 3.81426 12.1162 2.53533C15.2966 1.2564 18.7869 0.958205 22.1381 1.67911C25.4894 2.40002 28.5483 4.10705 30.9215 6.58064" stroke="#282828" stroke-width="2" stroke-linecap="round" stroke-linejoin="round"/>
</g>
<defs>
<clipPath id="clip0_92_719">
<rect width="37" height="37" fill="white"/>
</clipPath>
</defs>
</svg>
