<svg width="25" height="24" viewBox="0 0 25 24" fill="none" xmlns="http://www.w3.org/2000/svg">
<path d="M18.154 8.50965L9.594 4.22965C3.844 1.34965 1.484 3.70965 4.364 9.45965L5.234 11.1996C5.484 11.7096 5.484 12.2996 5.234 12.8096L4.364 14.5396C1.484 20.2896 3.834 22.6496 9.594 19.7696L18.154 15.4896C21.994 13.5696 21.994 10.4296 18.154 8.50965ZM14.924 12.7496H9.524C9.114 12.7496 8.774 12.4096 8.774 11.9996C8.774 11.5896 9.114 11.2496 9.524 11.2496H14.924C15.334 11.2496 15.674 11.5896 15.674 11.9996C15.674 12.4096 15.334 12.7496 14.924 12.7496Z" fill="black" fill-opacity="0.2"/>
</svg>
