<svg width="45" height="40" viewBox="0 0 45 40" fill="none" xmlns="http://www.w3.org/2000/svg">
<rect x="0.5" y="0.5" width="44" height="39" rx="9.5" stroke="#70ABCA"/>
<path fill-rule="evenodd" clip-rule="evenodd" d="M30.55 11.1625C28.3938 9.1 25.5188 8 22.5 8C16.175 8 11 12.95 11 19C11 20.925 11.575 22.85 12.5813 24.5L11 30L17.0375 28.4875C18.7625 29.3125 20.6313 29.8625 22.5 29.8625C28.825 29.8625 34 24.9125 34 18.8625C34 15.975 32.7063 13.225 30.55 11.1625ZM22.5 28.075C20.775 28.075 19.05 27.6625 17.6125 26.8375L17.325 26.7L13.7312 27.6625L14.7375 24.3625L14.45 23.95C13.4437 22.4375 13.0125 20.7875 13.0125 19.1375C13.0125 14.1875 17.325 10.0625 22.5 10.0625C25.0875 10.0625 27.3875 11.025 29.2563 12.675C31.125 14.4625 31.9875 16.6625 31.9875 19.1375C31.9875 23.95 27.8188 28.075 22.5 28.075ZM27.675 21.2C27.3875 21.0625 25.95 20.375 25.6625 20.375C25.375 20.2375 25.2312 20.2375 25.0875 20.5125C24.9437 20.7875 24.3688 21.3375 24.225 21.6125C24.0813 21.75 23.9375 21.75 23.65 21.75C23.3625 21.6125 22.5 21.3375 21.35 20.375C20.4875 19.6875 19.9125 18.725 19.7688 18.45C19.625 18.175 19.7688 18.0375 19.9125 17.9C20.0563 17.7625 20.2 17.625 20.3438 17.4875C20.4875 17.35 20.4875 17.2125 20.6313 17.075C20.775 16.9375 20.6313 16.8 20.6313 16.6625C20.6313 16.525 20.0563 15.15 19.7688 14.6C19.625 14.1875 19.3375 14.1875 19.1938 14.1875C19.05 14.1875 18.9062 14.1875 18.6187 14.1875C18.475 14.1875 18.1875 14.1875 17.9 14.4625C17.6125 14.7375 16.8938 15.425 16.8938 16.8C16.8938 18.175 17.9 19.4125 18.0437 19.6875C18.1875 19.825 20.0562 22.7125 22.9312 23.8125C25.375 24.775 25.8063 24.5 26.3813 24.5C26.9563 24.5 28.1063 23.8125 28.25 23.2625C28.5375 22.575 28.5375 22.025 28.3938 22.025C28.25 21.3375 27.9625 21.3375 27.675 21.2Z" fill="#77AFCD"/>
</svg>
